<svg width="319" height="319" viewBox="0 0 319 319" fill="none" xmlns="http://www.w3.org/2000/svg">
<g clip-path="url(#clip0_66_780)">
<path d="M319 243.971H0V244.131H319V243.971Z" fill="#EBEBEB"/>
<path d="M110.514 248.042H95.7255V248.201H110.514V248.042Z" fill="#EBEBEB"/>
<path d="M292.695 251.461H256.54V251.621H292.695V251.461Z" fill="#EBEBEB"/>
<path d="M63.4108 251.461H27.2554V251.621H63.4108V251.461Z" fill="#EBEBEB"/>
<path d="M151.206 215.516H28.0145C27.0495 215.515 26.1245 215.13 25.4427 214.447C24.7609 213.764 24.3779 212.838 24.3779 211.873V38.701C24.3863 37.7415 24.773 36.824 25.4539 36.1479C26.1348 35.4718 27.055 35.0916 28.0145 35.09H151.206C152.172 35.09 153.099 35.4738 153.782 36.157C154.465 36.8402 154.849 37.7668 154.849 38.7329V211.873C154.849 212.84 154.465 213.766 153.782 214.449C153.099 215.133 152.172 215.516 151.206 215.516ZM28.0145 35.2176C27.0918 35.2193 26.2074 35.587 25.5555 36.2401C24.9036 36.8932 24.5374 37.7783 24.5374 38.701V211.873C24.5374 212.796 24.9036 213.681 25.5555 214.334C26.2074 214.987 27.0918 215.355 28.0145 215.357H151.206C152.129 215.354 153.013 214.985 153.665 214.333C154.318 213.68 154.686 212.796 154.689 211.873V38.701C154.686 37.7782 154.318 36.8941 153.665 36.2416C153.013 35.589 152.129 35.2209 151.206 35.2176H28.0145Z" fill="#EBEBEB"/>
<path d="M289.212 215.516H166.014C165.049 215.513 164.124 215.128 163.442 214.446C162.759 213.763 162.374 212.839 162.371 211.873V38.701C162.381 37.7409 162.769 36.8235 163.451 36.1475C164.133 35.4716 165.054 35.0916 166.014 35.09H289.212C290.17 35.0933 291.089 35.4742 291.768 36.1501C292.448 36.8261 292.834 37.7426 292.842 38.701V211.873C292.843 212.351 292.75 212.824 292.568 213.266C292.386 213.707 292.119 214.108 291.781 214.447C291.444 214.785 291.044 215.054 290.603 215.237C290.162 215.421 289.689 215.516 289.212 215.516ZM166.014 35.2176C165.091 35.2209 164.207 35.589 163.555 36.2416C162.902 36.8941 162.534 37.7782 162.531 38.701V211.873C162.534 212.796 162.902 213.68 163.555 214.333C164.207 214.985 165.091 215.354 166.014 215.357H289.212C290.135 215.354 291.019 214.985 291.671 214.333C292.324 213.68 292.692 212.796 292.695 211.873V38.701C292.692 37.7782 292.324 36.8941 291.671 36.2416C291.019 35.589 290.135 35.2209 289.212 35.2176H166.014Z" fill="#EBEBEB"/>
<path d="M62.9705 83.2015H116.116C116.651 83.2007 117.18 83.3054 117.675 83.5097C118.169 83.7139 118.618 84.0137 118.996 84.3919C119.374 84.77 119.674 85.2191 119.878 85.7133C120.082 86.2075 120.187 86.7372 120.186 87.272V243.824H58.9384V87.2656C58.94 86.1938 59.3643 85.1658 60.1192 84.4049C60.8742 83.644 61.8987 83.2116 62.9705 83.2015Z" fill="#191C41"/>
<path d="M71.8898 92.6887H63.9913V110.272H71.8898V92.6887Z" fill="#EBEBEB"/>
<path d="M115.082 92.6887H107.184V110.272H115.082V92.6887Z" fill="#EBEBEB"/>
<path d="M86.2831 92.6887H78.3846V110.272H86.2831V92.6887Z" fill="#EBEBEB"/>
<path d="M100.683 92.6887H92.7843V110.272H100.683V92.6887Z" fill="#EBEBEB"/>
<path d="M71.8898 120.448H63.9913V138.031H71.8898V120.448Z" fill="#EBEBEB"/>
<path d="M115.082 120.448H107.184V138.031H115.082V120.448Z" fill="#EBEBEB"/>
<path d="M86.2831 120.448H78.3846V138.031H86.2831V120.448Z" fill="#EBEBEB"/>
<path d="M100.683 120.448H92.7843V138.031H100.683V120.448Z" fill="#EBEBEB"/>
<path d="M71.8898 148.201H63.9913V165.784H71.8898V148.201Z" fill="#EBEBEB"/>
<path d="M115.082 148.201H107.184V165.784H115.082V148.201Z" fill="#EBEBEB"/>
<path d="M86.2831 148.201H78.3846V165.784H86.2831V148.201Z" fill="#EBEBEB"/>
<path d="M100.683 148.201H92.7843V165.784H100.683V148.201Z" fill="#EBEBEB"/>
<path d="M71.8898 175.96H63.9913V193.544H71.8898V175.96Z" fill="#EBEBEB"/>
<path d="M115.082 175.96H107.184V193.544H115.082V175.96Z" fill="#EBEBEB"/>
<path d="M86.2831 175.96H78.3846V193.544H86.2831V175.96Z" fill="#EBEBEB"/>
<path d="M100.683 175.96H92.7843V193.544H100.683V175.96Z" fill="#EBEBEB"/>
<path d="M71.8898 203.713H63.9913V221.297H71.8898V203.713Z" fill="#EBEBEB"/>
<path d="M115.082 203.713H107.184V221.297H115.082V203.713Z" fill="#EBEBEB"/>
<path d="M86.2831 203.713H78.3846V221.297H86.2831V203.713Z" fill="#EBEBEB"/>
<path d="M100.683 203.713H92.7843V221.297H100.683V203.713Z" fill="#EBEBEB"/>
<path d="M251.334 97.7927H289.384C290.262 97.7944 291.103 98.1438 291.723 98.7644C292.344 99.385 292.693 100.226 292.695 101.104V243.825H248.035V101.11C248.035 100.234 248.382 99.3928 249 98.7712C249.618 98.1495 250.457 97.7978 251.334 97.7927Z" fill="#F5F5F5"/>
<path d="M260.891 106.425H253.714V122.407H260.891V106.425Z" fill="#EBEBEB"/>
<path d="M273.983 106.425H266.805V122.407H273.983V106.425Z" fill="#EBEBEB"/>
<path d="M287.068 106.425H279.891V122.407H287.068V106.425Z" fill="#EBEBEB"/>
<path d="M260.891 131.658H253.714V147.64H260.891V131.658Z" fill="#EBEBEB"/>
<path d="M273.983 131.658H266.805V147.64H273.983V131.658Z" fill="#EBEBEB"/>
<path d="M287.068 131.658H279.891V147.64H287.068V131.658Z" fill="#EBEBEB"/>
<path d="M260.891 156.897H253.714V172.879H260.891V156.897Z" fill="#EBEBEB"/>
<path d="M273.983 156.897H266.805V172.879H273.983V156.897Z" fill="#EBEBEB"/>
<path d="M287.068 156.897H279.891V172.879H287.068V156.897Z" fill="#EBEBEB"/>
<path d="M260.891 182.123H253.714V198.105H260.891V182.123Z" fill="#EBEBEB"/>
<path d="M273.983 182.123H266.805V198.105H273.983V182.123Z" fill="#EBEBEB"/>
<path d="M287.068 182.123H279.891V198.105H287.068V182.123Z" fill="#EBEBEB"/>
<path d="M260.891 207.363H253.714V223.345H260.891V207.363Z" fill="#EBEBEB"/>
<path d="M273.983 207.363H266.805V223.345H273.983V207.363Z" fill="#EBEBEB"/>
<path d="M287.068 207.363H279.891V223.345H287.068V207.363Z" fill="#EBEBEB"/>
<path d="M164.164 56.9479H225.973C227.229 56.9479 228.433 57.4466 229.321 58.3344C230.208 59.2222 230.707 60.4263 230.707 61.6818V243.824H159.436V61.6818C159.436 60.4274 159.934 59.2243 160.82 58.3367C161.707 57.4491 162.909 56.9496 164.164 56.9479Z" fill="#191C41"/>
<path d="M174.538 67.9917H165.351V88.446H174.538V67.9917Z" fill="#EBEBEB"/>
<path d="M224.786 67.9917H215.599V88.446H224.786V67.9917Z" fill="#EBEBEB"/>
<path d="M191.285 67.9917H182.098V88.446H191.285V67.9917Z" fill="#EBEBEB"/>
<path d="M208.039 67.9917H198.852V88.446H208.039V67.9917Z" fill="#EBEBEB"/>
<path d="M174.538 100.287H165.351V120.742H174.538V100.287Z" fill="#EBEBEB"/>
<path d="M224.786 100.287H215.599V120.742H224.786V100.287Z" fill="#EBEBEB"/>
<path d="M191.285 100.287H182.098V120.742H191.285V100.287Z" fill="#EBEBEB"/>
<path d="M208.039 100.287H198.852V120.742H208.039V100.287Z" fill="#EBEBEB"/>
<path d="M174.538 132.583H165.351V153.037H174.538V132.583Z" fill="#EBEBEB"/>
<path d="M224.786 132.583H215.599V153.037H224.786V132.583Z" fill="#EBEBEB"/>
<path d="M191.285 132.583H182.098V153.037H191.285V132.583Z" fill="#EBEBEB"/>
<path d="M208.039 132.583H198.852V153.037H208.039V132.583Z" fill="#EBEBEB"/>
<path d="M174.538 164.872H165.351V185.326H174.538V164.872Z" fill="#EBEBEB"/>
<path d="M224.786 164.872H215.599V185.326H224.786V164.872Z" fill="#EBEBEB"/>
<path d="M191.285 164.872H182.098V185.326H191.285V164.872Z" fill="#EBEBEB"/>
<path d="M208.039 164.872H198.852V185.326H208.039V164.872Z" fill="#EBEBEB"/>
<path d="M174.538 197.161H165.351V217.615H174.538V197.161Z" fill="#EBEBEB"/>
<path d="M224.786 197.161H215.599V217.615H224.786V197.161Z" fill="#EBEBEB"/>
<path d="M191.285 197.161H182.098V217.615H191.285V197.161Z" fill="#EBEBEB"/>
<path d="M208.039 197.161H198.852V217.615H208.039V197.161Z" fill="#EBEBEB"/>
<path d="M159.43 123.88H120.167V243.831H159.43V123.88Z" fill="#E6E6E6"/>
<path d="M248.061 136.723H230.714V243.824H248.061V136.723Z" fill="#E6E6E6"/>
<path d="M58.9002 243.824H24.5375V193.748L58.9002 182.123V243.824Z" fill="#E6E6E6"/>
<path d="M159.5 272.783C227.819 272.783 283.202 268.244 283.202 262.646C283.202 257.047 227.819 252.508 159.5 252.508C91.1814 252.508 35.7982 257.047 35.7982 262.646C35.7982 268.244 91.1814 272.783 159.5 272.783Z" fill="#F5F5F5"/>
<path d="M189.92 222.611H179.074C173.428 222.611 168.866 230.797 168.866 240.896C168.866 250.996 173.44 259.175 179.074 259.175H189.92C195.566 259.175 200.128 250.989 200.128 240.896C200.128 230.803 195.566 222.611 189.92 222.611Z" fill="#263238"/>
<mask id="mask0_66_780" style="mask-type:luminance" maskUnits="userSpaceOnUse" x="168" y="222" width="33" height="38">
<path d="M189.92 222.611H179.074C173.428 222.611 168.866 230.797 168.866 240.896C168.866 250.996 173.44 259.175 179.074 259.175H189.92C195.566 259.175 200.128 250.989 200.128 240.896C200.128 230.803 195.566 222.611 189.92 222.611Z" fill="white"/>
</mask>
<g mask="url(#mask0_66_780)">
<path opacity="0.05" d="M202.68 222.611H191.834C186.188 222.611 181.626 230.797 181.626 240.896C181.626 250.996 186.201 259.175 191.834 259.175H202.68C208.326 259.175 212.888 250.989 212.888 240.896C212.888 230.803 208.326 222.611 202.68 222.611Z" fill="white"/>
</g>
<path d="M277.779 226.528L87.8528 226.394V105.079H277.779V226.528Z" fill="#743D73"/>
<path opacity="0.3" d="M277.779 105.079H149.056V226.522H277.779V105.079Z" fill="#263238"/>
<path opacity="0.2" d="M149.056 105.079H87.8528V228.921H149.056V105.079Z" fill="white"/>
<path opacity="0.1" d="M88.312 110.719H277.779" stroke="white" stroke-width="1.276" stroke-linecap="round" stroke-linejoin="round"/>
<path opacity="0.1" d="M88.312 115.969H277.779" stroke="white" stroke-width="1.276" stroke-linecap="round" stroke-linejoin="round"/>
<path opacity="0.1" d="M88.312 121.214H277.779" stroke="white" stroke-width="1.276" stroke-linecap="round" stroke-linejoin="round"/>
<path opacity="0.1" d="M88.312 126.458H277.779" stroke="white" stroke-width="1.276" stroke-linecap="round" stroke-linejoin="round"/>
<path opacity="0.1" d="M88.312 131.709H277.779" stroke="white" stroke-width="1.276" stroke-linecap="round" stroke-linejoin="round"/>
<path opacity="0.1" d="M88.312 136.953H277.779" stroke="white" stroke-width="1.276" stroke-linecap="round" stroke-linejoin="round"/>
<path opacity="0.1" d="M88.312 142.197H277.779" stroke="white" stroke-width="1.276" stroke-linecap="round" stroke-linejoin="round"/>
<path opacity="0.1" d="M88.312 147.442H277.779" stroke="white" stroke-width="1.276" stroke-linecap="round" stroke-linejoin="round"/>
<path opacity="0.1" d="M88.312 152.693H277.779" stroke="white" stroke-width="1.276" stroke-linecap="round" stroke-linejoin="round"/>
<path opacity="0.1" d="M88.312 157.937H277.779" stroke="white" stroke-width="1.276" stroke-linecap="round" stroke-linejoin="round"/>
<path opacity="0.1" d="M88.312 163.181H277.779" stroke="white" stroke-width="1.276" stroke-linecap="round" stroke-linejoin="round"/>
<path opacity="0.1" d="M88.312 168.432H277.779" stroke="white" stroke-width="1.276" stroke-linecap="round" stroke-linejoin="round"/>
<path opacity="0.1" d="M88.312 173.676H277.779" stroke="white" stroke-width="1.276" stroke-linecap="round" stroke-linejoin="round"/>
<path opacity="0.1" d="M88.312 178.921H277.779" stroke="white" stroke-width="1.276" stroke-linecap="round" stroke-linejoin="round"/>
<path opacity="0.1" d="M88.312 184.165H277.779" stroke="white" stroke-width="1.276" stroke-linecap="round" stroke-linejoin="round"/>
<path opacity="0.1" d="M88.312 189.416H277.779" stroke="white" stroke-width="1.276" stroke-linecap="round" stroke-linejoin="round"/>
<path opacity="0.1" d="M88.312 194.66H277.779" stroke="white" stroke-width="1.276" stroke-linecap="round" stroke-linejoin="round"/>
<path opacity="0.1" d="M88.312 199.905H277.779" stroke="white" stroke-width="1.276" stroke-linecap="round" stroke-linejoin="round"/>
<path opacity="0.1" d="M88.312 205.155H277.779" stroke="white" stroke-width="1.276" stroke-linecap="round" stroke-linejoin="round"/>
<path opacity="0.1" d="M88.312 210.4H277.779" stroke="white" stroke-width="1.276" stroke-linecap="round" stroke-linejoin="round"/>
<path opacity="0.1" d="M88.312 215.644H277.779" stroke="white" stroke-width="1.276" stroke-linecap="round" stroke-linejoin="round"/>
<path opacity="0.1" d="M88.312 220.895H277.779" stroke="white" stroke-width="1.276" stroke-linecap="round" stroke-linejoin="round"/>
<path d="M52.9988 224.997H42.963C37.7314 224.997 33.4951 232.577 33.4951 241.93C33.4951 251.283 37.7314 258.856 42.963 258.856H52.9988C58.2304 258.856 62.4667 251.276 62.4667 241.93C62.4667 232.583 58.2304 224.997 52.9988 224.997Z" fill="#263238"/>
<path opacity="0.05" d="M65.7652 224.997H55.723C50.4914 224.997 46.2551 232.577 46.2551 241.93C46.2551 251.283 50.4914 258.856 55.723 258.856H65.7652C70.9904 258.856 75.2331 251.276 75.2331 241.93C75.2331 232.583 70.9904 224.997 65.7652 224.997Z" fill="white"/>
<path d="M47.4165 191.93H42.6697C41.7382 191.961 40.9727 190.966 40.9535 189.703C40.9408 189.571 40.9408 189.439 40.9535 189.307L42.2295 174.972C42.389 173.498 43.3013 172.42 44.3987 172.349H49.1901C50.1152 172.349 50.8808 173.325 50.8999 174.589C50.8999 174.716 50.8999 174.844 50.8999 174.972L49.6239 189.307C49.4325 190.762 48.4883 191.891 47.4165 191.93Z" fill="#263238"/>
<path d="M52.1631 144.577L43.0078 193.952L142.683 232.998L141.987 135.69L120.065 135.052H60.0169C56.4058 135.02 53.2222 138.899 52.1631 144.577Z" fill="#743D73"/>
<path d="M126.324 152.52C122.605 152.354 119.268 155.404 118.177 159.953L110.636 191.547H96.1212L95.3301 233.227H143.072" fill="#743D73"/>
<path d="M53.5921 188.893C52.1311 188.893 50.9508 187.017 50.9508 184.707C50.9502 184.305 50.9886 183.903 51.0657 183.508L56.5461 154.517C57.0054 152.112 58.409 150.466 59.9977 150.472H112.428C112.996 150.472 113.462 151.2 113.462 152.106C113.463 152.266 113.448 152.426 113.417 152.584C112.269 158.556 108.537 178.34 107.108 185.907C106.776 187.68 105.742 188.893 104.556 188.893H53.5921Z" fill="#263238"/>
<path d="M101.838 201.742C101.837 202.25 101.801 202.757 101.729 203.26L101.455 205.13L101.295 206.234L100.122 214.298L98.2075 227.409L97.678 231.052H23.485V227.409L23.536 214.298L23.6062 206.457V203.267C22.9682 199.056 25.0034 194.973 28.1041 194.124C28.4679 194.025 28.8435 193.976 29.2206 193.978H96.1213C99.2794 193.952 101.838 197.448 101.838 201.742Z" fill="#743D73"/>
<path d="M139.55 154.396V185.473C139.55 187.355 138.586 188.886 137.393 188.893H119.261C118.068 188.893 117.105 187.361 117.105 185.473C117.105 185.165 117.13 184.858 117.182 184.554L122.77 152.782C123.038 151.257 123.932 150.23 124.927 150.287L137.47 150.976C138.631 151.047 139.55 152.559 139.55 154.396Z" fill="#263238"/>
<path opacity="0.1" d="M84.1779 150.472H74.1613L62.6582 188.893H72.6812L84.1779 150.472Z" fill="white"/>
<path opacity="0.1" d="M91.9743 150.472H87.1893L75.6925 188.893H80.4711L91.9743 150.472Z" fill="white"/>
<path d="M121.061 214.298V227.409H23.4978L23.5488 214.298H121.061Z" fill="black"/>
<path d="M107.471 214.298H98.4499L82.2256 223.83V227.409H121.061V214.298H107.471Z" fill="white"/>
<path d="M40.3155 223.83V227.409H23.4978L23.5488 214.298H24.0975L40.3155 223.83Z" fill="white"/>
<path opacity="0.3" d="M142.727 233.227L141.987 135.69L128.589 135.052C125.246 134.886 121.386 138.771 120.41 143.276L110.7 193.952H106.916C102.667 193.952 99.7579 197.046 99.7643 200.332L99.8217 233.24H142.727" fill="#303575"/>
<path d="M101.589 205.589C101.587 205.71 101.561 205.829 101.51 205.939C101.459 206.049 101.386 206.147 101.295 206.227C101.139 206.372 100.934 206.452 100.721 206.45H23.6061V204.715H100.74C100.887 204.715 101.031 204.753 101.16 204.824C101.288 204.896 101.396 204.999 101.474 205.123C101.555 205.265 101.594 205.426 101.589 205.589Z" fill="white"/>
<path d="M37.2082 204.721V206.457H23.5806L23.5869 204.721H37.2082Z" fill="#263238"/>
<path d="M101.589 205.589C101.588 205.71 101.561 205.829 101.51 205.939C101.46 206.049 101.386 206.147 101.295 206.227C101.14 206.372 100.934 206.452 100.721 206.45H82.0151V204.715H100.721C100.868 204.715 101.013 204.753 101.141 204.824C101.269 204.896 101.377 204.999 101.455 205.123C101.542 205.263 101.589 205.424 101.589 205.589Z" fill="#263238"/>
<path d="M281.186 229.68V230.025C281.186 230.871 280.85 231.682 280.252 232.28C279.653 232.878 278.842 233.215 277.996 233.215H24.5823C23.7363 233.215 22.9249 232.878 22.3267 232.28C21.7284 231.682 21.3923 230.871 21.3923 230.025V229.68C21.3923 228.834 21.7284 228.023 22.3267 227.424C22.9249 226.826 23.7363 226.49 24.5823 226.49H277.996C278.842 226.49 279.653 226.826 280.252 227.424C280.85 228.023 281.186 228.834 281.186 229.68Z" fill="#263238"/>
<path d="M80.7774 229.112H43.0078V230.956H80.7774V229.112Z" fill="black"/>
<path d="M32.9592 230.031C32.9592 230.239 32.8976 230.442 32.7822 230.615C32.6668 230.788 32.5028 230.923 32.3108 231.003C32.1188 231.083 31.9075 231.104 31.7034 231.064C31.4994 231.024 31.3118 230.924 31.1643 230.778C31.0169 230.631 30.9161 230.444 30.8748 230.24C30.8334 230.036 30.8534 229.825 30.9321 229.633C31.0108 229.44 31.1447 229.275 31.317 229.159C31.4893 229.042 31.6922 228.98 31.9001 228.978C32.0389 228.977 32.1764 229.004 32.3049 229.057C32.4333 229.109 32.5501 229.187 32.6486 229.284C32.747 229.382 32.8251 229.499 32.8784 229.627C32.9317 229.755 32.9592 229.892 32.9592 230.031Z" fill="white"/>
<path d="M89.7988 230.031C89.7988 230.239 89.737 230.443 89.6213 230.616C89.5057 230.789 89.3413 230.924 89.1489 231.004C88.9566 231.083 88.7449 231.104 88.5407 231.063C88.3365 231.023 88.1489 230.923 88.0017 230.775C87.8545 230.628 87.7542 230.441 87.7136 230.236C87.673 230.032 87.6938 229.82 87.7735 229.628C87.8532 229.436 87.9881 229.271 88.1612 229.156C88.3343 229.04 88.5379 228.978 88.7461 228.978C88.8843 228.978 89.0212 229.006 89.1489 229.058C89.2766 229.111 89.3927 229.189 89.4904 229.287C89.5882 229.384 89.6657 229.5 89.7186 229.628C89.7715 229.756 89.7988 229.893 89.7988 230.031Z" fill="white"/>
<path d="M120.321 240.481C120.321 230.331 124.921 222.101 130.599 222.101H119.695C114.024 222.101 109.424 230.331 109.424 240.481C109.424 250.632 114.024 258.856 119.695 258.856H130.599C124.921 258.875 120.321 250.651 120.321 240.481Z" fill="black"/>
<path opacity="0.7" d="M120.321 240.481C120.321 230.331 124.921 222.101 130.599 222.101H119.695C114.024 222.101 109.424 230.331 109.424 240.481C109.424 250.632 114.024 258.856 119.695 258.856H130.599C124.921 258.875 120.321 250.651 120.321 240.481Z" fill="#263238"/>
<path d="M130.599 258.881C136.275 258.881 140.877 250.652 140.877 240.501C140.877 230.349 136.275 222.12 130.599 222.12C124.922 222.12 120.32 230.349 120.32 240.501C120.32 250.652 124.922 258.881 130.599 258.881Z" fill="#263238"/>
<path d="M131.422 254.83C135.446 254.83 138.708 248.414 138.708 240.5C138.708 232.587 135.446 226.171 131.422 226.171C127.398 226.171 124.136 232.587 124.136 240.5C124.136 248.414 127.398 254.83 131.422 254.83Z" fill="white"/>
<path d="M130.758 252.903C134.61 252.903 137.732 247.35 137.732 240.5C137.732 233.651 134.61 228.098 130.758 228.098C126.907 228.098 123.785 233.651 123.785 240.5C123.785 247.35 126.907 252.903 130.758 252.903Z" fill="#263238"/>
<path d="M129.227 249.554C132.039 249.554 134.318 245.5 134.318 240.5C134.318 235.501 132.039 231.447 129.227 231.447C126.415 231.447 124.136 235.501 124.136 240.5C124.136 245.5 126.415 249.554 129.227 249.554Z" fill="black"/>
<path opacity="0.5" d="M281.186 229.68V230.025C281.186 230.871 280.85 231.682 280.251 232.28C279.653 232.878 278.842 233.215 277.996 233.215H149.056V226.49H277.996C278.842 226.49 279.653 226.826 280.251 227.424C280.85 228.023 281.186 228.834 281.186 229.68Z" fill="black"/>
<path d="M241.113 240.481C241.113 230.331 245.713 222.101 251.385 222.101H240.488C234.81 222.101 230.21 230.331 230.21 240.481C230.21 250.632 234.81 258.856 240.488 258.856H251.372C245.713 258.875 241.113 250.651 241.113 240.481Z" fill="black"/>
<path opacity="0.7" d="M241.113 240.481C241.113 230.331 245.713 222.101 251.385 222.101H240.488C234.81 222.101 230.21 230.331 230.21 240.481C230.21 250.632 234.81 258.856 240.488 258.856H251.372C245.713 258.875 241.113 250.651 241.113 240.481Z" fill="#263238"/>
<path d="M251.385 258.881C257.061 258.881 261.663 250.652 261.663 240.501C261.663 230.349 257.061 222.12 251.385 222.12C245.708 222.12 241.107 230.349 241.107 240.501C241.107 250.652 245.708 258.881 251.385 258.881Z" fill="#263238"/>
<path d="M252.214 254.83C256.238 254.83 259.5 248.414 259.5 240.5C259.5 232.587 256.238 226.171 252.214 226.171C248.19 226.171 244.928 232.587 244.928 240.5C244.928 248.414 248.19 254.83 252.214 254.83Z" fill="white"/>
<path d="M251.544 252.903C255.396 252.903 258.518 247.35 258.518 240.5C258.518 233.651 255.396 228.098 251.544 228.098C247.693 228.098 244.571 233.651 244.571 240.5C244.571 247.35 247.693 252.903 251.544 252.903Z" fill="#263238"/>
<path d="M250.013 249.554C252.825 249.554 255.104 245.5 255.104 240.5C255.104 235.501 252.825 231.447 250.013 231.447C247.201 231.447 244.922 235.501 244.922 240.5C244.922 245.5 247.201 249.554 250.013 249.554Z" fill="black"/>
<path d="M209.813 150.568C209.685 153.024 209.462 155.398 209.098 157.816C208.784 160.313 208.237 162.776 207.465 165.172C207.221 165.87 206.916 166.544 206.553 167.188C206.3 167.622 205.991 168.021 205.634 168.375L205.455 168.541L205.353 168.617L205.302 168.662L205.085 168.809L204.658 169.108C203.574 169.804 202.435 170.408 201.251 170.914C199.004 171.901 196.669 172.675 194.278 173.224L193.448 170.952C195.477 169.829 197.557 168.681 199.452 167.488C200.378 166.92 201.269 166.295 202.119 165.619L202.399 165.383L202.54 165.261C202.54 165.261 202.597 165.166 202.667 165.012C202.854 164.6 203.007 164.173 203.127 163.736C203.415 162.687 203.643 161.622 203.809 160.546C204.007 159.436 204.167 158.307 204.301 157.159C204.562 154.881 204.785 152.546 204.939 150.275L209.813 150.568Z" fill="#CE7A63"/>
<path d="M194.96 170.984L191.043 169.772L191.777 174.512C191.777 174.512 194.329 174.193 195.605 172.764L194.96 170.984Z" fill="#CE7A63"/>
<path d="M186.296 172.821L186.513 173.459C186.636 173.812 186.869 174.115 187.179 174.323C187.488 174.531 187.857 174.634 188.229 174.614L190.226 174.525L189.486 169.772L187.291 170.633C186.875 170.799 186.539 171.119 186.353 171.527C186.168 171.935 186.147 172.399 186.296 172.821Z" fill="#CE7A63"/>
<path d="M214.445 145.968C214.445 147.448 213.73 150.37 213.118 152.565C212.665 154.141 212.288 155.34 212.288 155.34L211.389 155.117L203.975 153.241C203.86 149.413 204.007 145.247 207.803 142.746C210.176 141.177 214.425 143.333 214.445 145.968Z" fill="#263238"/>
<path opacity="0.3" d="M214.438 146.223C213.953 145.713 212.856 145.624 210.463 146.383C207.037 147.467 206.08 151.219 206.036 153.764L211.389 155.117L211.848 155.238L212.288 155.34C212.288 155.34 212.473 154.741 212.741 153.828C212.85 153.458 212.984 153.024 213.111 152.552C213.75 150.489 214.194 148.37 214.438 146.223Z" fill="black"/>
<path d="M199.228 265.07L194.705 263.488L197.55 253.688L202.067 255.277L199.228 265.07Z" fill="#CE7A63"/>
<path d="M259.666 253.458L255.985 256.202L248.45 248.565L252.131 245.822L259.666 253.458Z" fill="#CE7A63"/>
<path d="M254.479 255.085L258.454 251.799C258.521 251.741 258.607 251.709 258.696 251.709C258.785 251.709 258.871 251.741 258.939 251.799L261.988 254.568C262.057 254.637 262.111 254.718 262.148 254.807C262.185 254.896 262.205 254.992 262.205 255.088C262.205 255.185 262.185 255.281 262.148 255.37C262.111 255.459 262.057 255.54 261.988 255.608L261.925 255.666C260.521 256.789 259.781 257.261 258.033 258.703C256.961 259.589 254.709 261.714 253.222 262.939C251.736 264.164 250.447 262.767 250.957 262.122C253.235 259.239 253.765 257.337 254.033 255.781C254.097 255.504 254.255 255.259 254.479 255.085Z" fill="#263238"/>
<path d="M194.399 262.071L199.426 264.17C199.516 264.21 199.59 264.277 199.639 264.362C199.687 264.447 199.706 264.545 199.694 264.642L199.126 269.077C199.104 269.254 199.012 269.416 198.871 269.526C198.73 269.636 198.551 269.685 198.373 269.664C198.307 269.657 198.243 269.639 198.182 269.612C196.402 268.892 195.566 268.534 193.359 267.609L186.583 264.77C184.746 263.998 185.141 261.982 185.945 262.129C189.665 262.805 192.064 262.582 193.531 262.027C193.671 261.976 193.82 261.955 193.969 261.962C194.118 261.97 194.264 262.007 194.399 262.071Z" fill="#263238"/>
<path opacity="0.2" d="M197.551 253.694L196.089 258.741L200.492 260.731L202.074 255.277L197.551 253.694Z" fill="black"/>
<path opacity="0.2" d="M252.138 245.822L248.45 248.565L252.335 252.501L256.017 249.758L252.138 245.822Z" fill="black"/>
<path d="M228.353 169.919L209.724 170.187C207.172 155.761 206.534 148.877 206.534 145.566C206.53 144.74 206.815 143.939 207.339 143.301C207.864 142.663 208.594 142.227 209.405 142.07C210.54 141.847 211.957 141.591 213.379 141.394C213.864 141.33 214.355 141.266 214.84 141.215C217.654 140.974 220.481 140.933 223.3 141.094C223.721 141.094 224.136 141.132 224.576 141.158C226.49 141.279 228.238 141.521 229.482 141.713C229.93 141.785 230.33 142.032 230.596 142.399C230.862 142.766 230.971 143.224 230.899 143.671C230.902 143.703 230.902 143.735 230.899 143.767C230.35 146.319 229.904 148.584 229.546 150.6C228.978 153.79 228.621 156.393 228.411 158.664C228.092 162.408 228.072 166.172 228.353 169.919Z" fill="#263238"/>
<path opacity="0.1" d="M228.404 158.683C227.466 155.87 227.517 150.032 228.525 148.144L229.552 150.613C228.972 153.822 228.615 156.412 228.404 158.683Z" fill="black"/>
<path d="M209.723 170.187C209.723 170.187 206.533 197.308 203.656 214.209C201.378 227.441 195.624 254.983 195.624 254.983L203.095 257.631C203.095 257.631 211.65 228.921 213.149 216.659C219.178 198.98 223.517 170.053 223.517 170.053L209.723 170.187Z" fill="#263238"/>
<path d="M194.411 256.833L203.056 259.877L204.211 257.101L194.833 253.516L194.411 256.833Z" fill="#263238"/>
<path opacity="0.1" d="M219.166 178.245L216.371 183.597C215.351 187.63 215.593 197.442 216.888 203.643C219.211 194.297 221.067 184.459 222.222 177.855L219.166 178.245Z" fill="black"/>
<path d="M213.768 170.187C213.768 170.187 217.105 200.543 223.338 217.399C226.465 225.852 249.656 250.913 249.656 250.913L254.888 246.727C254.888 246.727 240.182 221.443 233.751 214.827C231.128 200.153 234.427 178.155 228.334 169.925L213.768 170.187Z" fill="#263238"/>
<path d="M250.096 252.706L256.234 247.678L254.575 244.954L247.857 250.804L250.096 252.706Z" fill="#263238"/>
<path d="M228.647 168.828L229.508 170.48C229.572 170.608 229.425 170.748 229.208 170.748L209.66 171.029C209.488 171.029 209.354 170.946 209.334 170.844L209.149 169.178C209.149 169.064 209.283 168.962 209.462 168.962L228.334 168.687C228.394 168.684 228.453 168.695 228.508 168.719C228.562 168.743 228.61 168.781 228.647 168.828Z" fill="#263238"/>
<path d="M226.114 170.984H226.63C226.726 170.984 226.803 170.927 226.796 170.869L226.522 168.7C226.522 168.636 226.433 168.592 226.331 168.592H225.852C225.75 168.592 225.673 168.649 225.686 168.706L225.954 170.869C225.922 170.92 226.018 170.984 226.114 170.984Z" fill="black"/>
<path d="M211.063 171.188H211.574C211.676 171.188 211.746 171.131 211.74 171.067L211.478 168.904C211.478 168.84 211.376 168.789 211.274 168.789H210.763C210.661 168.789 210.585 168.847 210.591 168.911L210.859 171.073C210.872 171.137 210.961 171.188 211.063 171.188Z" fill="black"/>
<path d="M218.592 171.067H219.102C219.204 171.067 219.281 171.009 219.274 170.946L219.006 168.783C219.006 168.713 218.911 168.662 218.809 168.668H218.298C218.196 168.668 218.126 168.725 218.126 168.789L218.394 170.952C218.388 171.029 218.49 171.067 218.592 171.067Z" fill="black"/>
<path d="M184.791 151.091L212.441 147.295L216.269 174.442L189.116 178.168L184.791 151.091Z" fill="black"/>
<path opacity="0.8" d="M184.791 151.091L212.441 147.295L216.269 174.442L189.116 178.168L184.791 151.091Z" fill="white"/>
<path opacity="0.2" d="M212.821 145.984L205.437 147.028L209.398 175.034L216.781 173.99L212.821 145.984Z" fill="black"/>
<path d="M220.282 171.022L216.454 169.523L216.831 174.308C216.831 174.308 219.383 174.18 220.755 172.847L220.282 171.022Z" fill="#CE7A63"/>
<path d="M232.321 147.199C233.349 150.07 234.235 152.941 234.988 155.876C235.371 157.35 235.728 158.83 236.015 160.342C236.156 161.108 236.277 161.886 236.366 162.696C236.469 163.543 236.505 164.396 236.475 165.248C236.457 165.803 236.371 166.354 236.22 166.888C236.01 167.545 235.659 168.148 235.192 168.655C234.51 169.386 233.699 169.985 232.8 170.423C231.328 171.137 229.778 171.679 228.181 172.037C225.196 172.729 222.151 173.137 219.089 173.255L218.789 170.85C220.187 170.518 221.616 170.148 223.007 169.759C224.397 169.37 225.782 168.936 227.109 168.451C228.376 168.016 229.599 167.458 230.758 166.786C231.18 166.54 231.555 166.222 231.868 165.848C231.951 165.721 231.951 165.689 231.939 165.689C231.951 165.5 231.951 165.31 231.939 165.121C231.914 164.503 231.848 163.886 231.741 163.277C231.639 162.639 231.498 161.925 231.345 161.223C231.026 159.857 230.669 158.46 230.267 157.063C229.47 154.294 228.57 151.48 227.67 148.769L232.321 147.199Z" fill="#CE7A63"/>
<path d="M212.926 171.884L213.226 172.994C213.316 173.35 213.52 173.668 213.807 173.898C214.093 174.128 214.447 174.259 214.815 174.27L216.869 174.327L216.493 169.549L214.4 169.785C214.178 169.807 213.962 169.873 213.766 169.979C213.569 170.084 213.395 170.228 213.254 170.401C213.113 170.574 213.008 170.773 212.944 170.987C212.88 171.201 212.859 171.426 212.882 171.648C212.891 171.727 212.906 171.806 212.926 171.884Z" fill="#CE7A63"/>
<path d="M230.146 141.853C232.29 142.727 234.044 149.771 234.044 149.771L228.123 154.396C228.123 154.396 223.925 147.825 224.78 144.973C225.508 142.561 227.415 140.749 230.146 141.853Z" fill="#263238"/>
<path d="M253.031 257.076H252.954C252.847 257.068 252.744 257.034 252.653 256.976C252.563 256.918 252.489 256.838 252.437 256.744C252.399 256.69 252.376 256.626 252.371 256.56C252.365 256.494 252.377 256.428 252.406 256.368C252.667 255.857 254.32 255.653 254.498 255.634C254.519 255.63 254.541 255.633 254.561 255.642C254.58 255.651 254.596 255.666 254.607 255.685C254.619 255.703 254.625 255.724 254.625 255.746C254.625 255.767 254.619 255.788 254.607 255.806C254.262 256.272 253.592 257.037 253.031 257.076ZM254.275 255.883C253.637 255.978 252.737 256.189 252.61 256.47C252.594 256.493 252.586 256.521 252.586 256.549C252.586 256.578 252.594 256.605 252.61 256.629C252.64 256.695 252.687 256.751 252.747 256.791C252.806 256.832 252.876 256.855 252.948 256.859C253.267 256.859 253.777 256.514 254.288 255.883H254.275Z" fill="#263238"/>
<path d="M254.422 255.838C253.867 255.838 252.757 255.64 252.508 255.2C252.468 255.124 252.455 255.036 252.472 254.952C252.488 254.867 252.532 254.791 252.597 254.734C252.653 254.673 252.723 254.624 252.8 254.592C252.877 254.56 252.96 254.545 253.044 254.549C253.714 254.549 254.562 255.577 254.588 255.634C254.597 255.649 254.602 255.667 254.602 255.685C254.602 255.703 254.597 255.721 254.588 255.736C254.583 255.755 254.572 255.771 254.557 255.784C254.542 255.797 254.524 255.804 254.505 255.806L254.422 255.838ZM253.005 254.779C252.916 254.788 252.832 254.828 252.769 254.894C252.674 254.996 252.693 255.06 252.718 255.111C252.865 255.391 253.739 255.621 254.301 255.621C253.981 255.22 253.547 254.924 253.057 254.773L253.005 254.779Z" fill="#263238"/>
<path d="M191.828 261.969C191.473 261.854 191.163 261.631 190.941 261.331C190.89 261.243 190.859 261.145 190.851 261.043C190.842 260.942 190.855 260.84 190.89 260.744C190.907 260.689 190.939 260.64 190.981 260.6C191.024 260.561 191.076 260.534 191.132 260.521C191.719 260.413 193.104 261.899 193.372 262.199C193.384 262.218 193.391 262.24 193.391 262.263C193.391 262.285 193.384 262.308 193.372 262.327C193.361 262.347 193.344 262.363 193.323 262.372C193.302 262.381 193.279 262.383 193.257 262.378C192.768 262.29 192.289 262.153 191.828 261.969ZM191.387 260.77C191.322 260.738 191.249 260.725 191.177 260.732C191.177 260.732 191.119 260.732 191.094 260.808C191.068 260.875 191.058 260.946 191.065 261.017C191.072 261.088 191.095 261.156 191.132 261.216C191.33 261.561 192.013 261.886 192.982 262.097C192.527 261.575 191.993 261.127 191.4 260.77H191.387Z" fill="#263238"/>
<path d="M193.25 262.365H193.212C192.746 261.899 191.987 260.502 192.249 260.055C192.306 259.96 192.427 259.857 192.702 259.934C193.729 260.234 193.416 262.224 193.397 262.307C193.397 262.328 193.389 262.349 193.375 262.364C193.361 262.379 193.341 262.389 193.32 262.39C193.308 262.393 193.294 262.392 193.282 262.388C193.269 262.383 193.258 262.375 193.25 262.365ZM192.74 260.138H192.676C192.574 260.106 192.497 260.138 192.472 260.138C192.319 260.4 192.81 261.452 193.257 262.014C193.25 261.523 193.314 260.393 192.74 260.138Z" fill="#263238"/>
<path d="M212.505 122.005C212.505 122.005 209.953 126.273 211.867 128.142C213.781 130.012 214.343 123.383 214.343 123.383L212.505 122.005Z" fill="#263238"/>
<path d="M224.359 132.021C224.359 132.021 227.549 127.032 226.222 122.075C224.895 117.118 218.694 120.32 216.078 118.962C215.12 118.379 214.099 117.906 213.035 117.552C212.864 117.501 212.683 117.49 212.508 117.52C212.332 117.55 212.165 117.62 212.02 117.724C211.382 118.285 212.492 119.338 212.837 119.734C212.625 119.488 212.38 119.274 212.11 119.096C211.771 118.872 211.318 118.853 211.472 119.421C211.734 120.031 212.204 120.528 212.799 120.824C212.55 120.684 211.076 119.938 210.974 120.403C210.961 120.516 210.991 120.63 211.057 120.722C212.014 122.509 213.941 124.755 216.161 124.799C218.834 124.838 221.386 132.36 224.359 132.021Z" fill="#263238"/>
<path d="M225.489 132.245C225.323 133.929 222.822 133.948 222.822 133.948C222.412 134.912 221.732 135.737 220.863 136.321C220.786 137.339 220.82 138.361 220.965 139.371C221.386 140.96 221.922 141.508 222.592 141.866L222.056 142.395C221.03 142.987 219.872 143.31 218.687 143.333L217.986 142.925L217.067 143.072C214.515 142.236 215.153 140.52 215.153 140.52C215.618 139.354 215.643 138.059 215.223 136.877C212.773 136.111 211.772 133.98 211.427 130.394C211.083 126.809 213.099 123.376 213.099 123.376C215.868 126.05 221.354 124.333 221.354 124.333C221.118 129.361 223.466 131.217 223.466 131.217C224.238 130.528 225.648 130.567 225.489 132.245Z" fill="#CE7A63"/>
<path d="M216.582 132.704C217.24 132.52 217.81 132.103 218.183 131.53C218.214 131.485 218.225 131.43 218.216 131.376C218.206 131.323 218.176 131.275 218.132 131.243C218.111 131.227 218.086 131.215 218.06 131.209C218.033 131.202 218.006 131.201 217.979 131.205C217.953 131.209 217.927 131.219 217.904 131.233C217.881 131.247 217.861 131.266 217.845 131.288C217.63 131.675 217.296 131.983 216.893 132.166C216.49 132.35 216.039 132.4 215.606 132.308C215.554 132.292 215.498 132.298 215.451 132.323C215.403 132.348 215.367 132.391 215.351 132.442C215.334 132.495 215.339 132.552 215.364 132.6C215.389 132.649 215.433 132.686 215.485 132.704C215.844 132.798 216.222 132.798 216.582 132.704Z" fill="#263238"/>
<path d="M217.309 128.315C217.309 128.64 217.182 128.921 216.965 128.953C216.748 128.985 216.55 128.717 216.525 128.391C216.499 128.066 216.659 127.753 216.876 127.753C217.092 127.753 217.284 127.983 217.309 128.315Z" fill="#263238"/>
<path d="M213.405 128.149C213.405 128.474 213.277 128.755 213.06 128.787C212.843 128.819 212.652 128.551 212.626 128.225C212.601 127.9 212.754 127.619 212.971 127.587C213.188 127.555 213.386 127.817 213.405 128.149Z" fill="#263238"/>
<path d="M214.438 131.307L214.394 128.946L213.22 130.937C213.382 131.086 213.576 131.197 213.787 131.261C213.998 131.325 214.22 131.341 214.438 131.307Z" fill="#BA4D3C"/>
<path d="M219.089 126.324C219.117 126.316 219.143 126.303 219.166 126.286C219.197 126.267 219.224 126.243 219.246 126.214C219.267 126.185 219.282 126.152 219.291 126.117C219.299 126.081 219.3 126.045 219.294 126.009C219.288 125.974 219.275 125.94 219.255 125.909C219.043 125.553 218.734 125.264 218.366 125.074C217.997 124.885 217.582 124.803 217.169 124.837C217.133 124.841 217.098 124.852 217.067 124.87C217.035 124.888 217.008 124.912 216.986 124.94C216.964 124.969 216.947 125.002 216.938 125.037C216.929 125.072 216.927 125.108 216.933 125.144C216.942 125.216 216.98 125.281 217.037 125.325C217.095 125.369 217.167 125.389 217.239 125.38C217.548 125.361 217.855 125.427 218.129 125.571C218.402 125.715 218.631 125.931 218.789 126.196C218.819 126.247 218.864 126.287 218.918 126.31C218.972 126.333 219.032 126.338 219.089 126.324Z" fill="#263238"/>
<path d="M212.167 126.062C212.239 126.044 212.3 125.998 212.339 125.935C212.454 125.762 212.616 125.626 212.806 125.543C212.996 125.46 213.206 125.435 213.411 125.469C213.446 125.477 213.483 125.477 213.518 125.47C213.553 125.463 213.587 125.449 213.617 125.428C213.646 125.408 213.672 125.382 213.691 125.352C213.711 125.322 213.724 125.288 213.73 125.252C213.743 125.181 213.728 125.108 213.687 125.048C213.647 124.988 213.584 124.947 213.513 124.933C213.197 124.875 212.871 124.913 212.578 125.043C212.284 125.172 212.036 125.388 211.867 125.661C211.831 125.724 211.822 125.798 211.839 125.868C211.857 125.938 211.901 125.999 211.963 126.037C212.025 126.07 212.098 126.079 212.167 126.062Z" fill="#263238"/>
<path d="M223.632 142.089L222.26 143.429L219.817 145.828L218.898 144.367L217.986 142.925L221.176 139.122L223.498 141.93L223.632 142.089Z" fill="white"/>
<path d="M217.986 142.925L217.277 144.105L216.238 145.828L213.851 141.521L215.376 139.729L217.986 142.925Z" fill="white"/>
</g>
<defs>
<clipPath id="clip0_66_780">
<rect width="319" height="319" fill="white"/>
</clipPath>
</defs>
</svg>
